Coordinates
version=1
nRows=19
nColumns=63
inDegrees=yes

Units are S.I. units (second, meters, Newtons, ...)
If the header above contains a line with 'inDegrees', this indicates whether rotational values are in degrees (yes) or radians (no).

endheader
time	pelvis_tilt	pelvis_list	pelvis_rotation	pelvis_tx	pelvis_ty	pelvis_tz	hip_flexion_r	hip_adduction_r	hip_rotation_r	knee_angle_r	knee_angle_r_beta	ankle_angle_r	subtalar_angle_r	mtp_angle_r	hip_flexion_l	hip_adduction_l	hip_rotation_l	knee_angle_l	knee_angle_l_beta	ankle_angle_l	subtalar_angle_l	mtp_angle_l	L5_S1_Flex_Ext	L5_S1_Lat_Bending	L5_S1_axial_rotation	L4_L5_Flex_Ext	L4_L5_Lat_Bending	L4_L5_axial_rotation	L3_L4_Flex_Ext	L3_L4_Lat_Bending	L3_L4_axial_rotation	L2_L3_Flex_Ext	L2_L3_Lat_Bending	L2_L3_axial_rotation	L1_L2_Flex_Ext	L1_L2_Lat_Bending	L1_L2_axial_rotation	L1_T12_Flex_Ext	L1_T12_Lat_Bending	L1_T12_axial_rotation	Abs_r3	Abs_r2	Abs_r1	Abs_t1	Abs_t2	neck_flexion	neck_bending	neck_rotation	arm_flex_r	arm_add_r	arm_rot_r	elbow_flex_r	pro_sup_r	wrist_flex_r	wrist_dev_r	arm_flex_l	arm_add_l	arm_rot_l	elbow_flex_l	pro_sup_l	wrist_flex_l	wrist_dev_l
1.125000	3.390389	-9.666871	100.316080	0.220901	0.854596	0.641815	8.768835	0.844771	3.405003	10.329847	0.180290	26.021535	-5.647585	0.000000	7.758001	-0.457267	-8.996484	7.314005	0.127653	30.792826	9.792782	0.000000	0.150755	0.634125	-0.254635	0.279967	0.843387	-0.270550	0.247675	1.541813	-0.270550	0.172298	1.541813	-0.222806	0.139991	1.293109	-0.206891	0.086141	0.982260	-0.190976	1.076826	7.173354	-1.416203	0.000000	0.000000	17.259194	-2.027224	4.544734	7.308978	-18.945917	29.552440	90.640756	69.362965	-5.049750	25.269771	-2.446862	-15.895230	19.904156	87.081924	85.163147	-8.333816	3.344208
1.145833	3.360787	-8.839547	100.012906	0.219167	0.856495	0.638040	7.943302	0.897683	4.374326	10.439952	0.182212	26.504387	-6.009370	0.000000	6.970885	-0.649851	-10.687850	8.072244	0.140887	31.455752	11.749728	0.000000	0.143086	0.776019	-0.337859	0.265724	1.032105	-0.358975	0.235075	1.886812	-0.358975	0.163532	1.886812	-0.295626	0.132869	1.582457	-0.274510	0.081759	1.202053	-0.253394	1.022046	8.778478	-1.879068	0.000000	0.000000	14.219955	-3.342556	6.995914	8.040266	-18.821222	29.703986	96.840460	69.204660	-5.993417	26.633222	-5.131261	-16.456077	16.653569	95.604786	85.970958	-7.098192	4.502245
1.166667	3.284560	-7.953622	99.628069	0.217528	0.858475	0.634241	7.104701	0.948512	5.595676	10.610140	0.185182	27.053699	-6.503053	0.000000	6.110271	-0.801942	-12.203239	8.818895	0.153919	32.085636	13.456820	0.000000	0.133558	0.929156	-0.408852	0.248031	1.235778	-0.434405	0.219423	2.259151	-0.434405	0.152644	2.259151	-0.357746	0.124022	1.894736	-0.332192	0.076315	1.439263	-0.306639	0.953992	10.510803	-2.273913	0.000000	0.000000	10.918426	-4.774011	9.301781	9.033584	-18.517054	30.481220	102.753828	69.940570	-7.563427	27.492121	-7.497895	-16.993561	14.059456	103.881944	86.113568	-5.654769	5.381965
1.187500	3.156303	-7.030394	99.143969	0.216063	0.860482	0.630661	6.321995	0.979431	6.944628	10.892600	0.190112	27.716982	-6.940293	0.000000	5.214841	-0.896461	-13.552221	9.540771	0.166518	32.700872	14.915467	0.000000	0.121985	1.089718	-0.452691	0.226538	1.449324	-0.480984	0.200408	2.649539	-0.480984	0.139416	2.649539	-0.396105	0.113275	2.222152	-0.367811	0.069702	1.687973	-0.339518	0.871324	12.327103	-2.517732	0.000000	0.000000	7.473460	-6.292805	11.300572	10.077398	-18.032885	31.341366	108.323536	71.641796	-9.148634	28.084167	-9.472204	-17.447843	11.954591	111.646093	86.181040	-4.076620	5.967355
1.208333	2.972107	-6.046477	98.583245	0.214819	0.862511	0.627543	5.596970	0.978229	8.319361	11.311328	0.197420	28.507282	-7.239044	0.000000	4.279299	-0.929351	-14.662065	10.233835	0.178614	33.303824	16.059901	0.000000	0.103237	1.253398	-0.464709	0.191722	1.667019	-0.493754	0.169608	3.047511	-0.493754	0.117990	3.047511	-0.406621	0.095866	2.555928	-0.377576	0.058990	1.941513	-0.348532	0.737413	14.178683	-2.584574	0.000000	0.000000	4.011308	-7.878124	12.797538	11.096397	-17.411384	32.265029	113.464908	73.681951	-10.591366	28.319485	-10.919716	-17.778790	10.406745	118.718165	86.425318	-2.418220	6.386895
1.229167	2.745967	-5.035753	97.958421	0.213786	0.864470	0.625004	4.967339	0.975043	9.793469	11.870085	0.207172	29.376983	-7.566501	0.000000	3.336255	-0.902609	-15.500564	10.867058	0.189666	33.894148	16.865893	0.000000	0.079407	1.420429	-0.458455	0.147466	1.889170	-0.487109	0.130457	3.453631	-0.487109	0.090754	3.453631	-0.401148	0.073737	2.896538	-0.372495	0.045373	2.200244	-0.343841	0.567194	16.068174	-2.549790	0.000000	0.000000	0.717412	-9.569302	13.897988	12.129072	-16.708189	33.334749	118.109333	75.790784	-11.980671	28.366438	-11.879595	-17.979127	9.450484	124.965359	87.055216	-0.708246	6.442685
1.250000	2.478945	-3.993361	97.300564	0.212963	0.866299	0.623143	4.431967	0.955332	11.240427	12.585824	0.219664	30.310281	-7.835901	0.000000	2.391810	-0.815733	-16.043675	11.449803	0.199837	34.485099	17.318925	0.000000	0.047754	1.585130	-0.435150	0.088684	2.108222	-0.462347	0.078455	3.854084	-0.462347	0.054578	3.854084	-0.380756	0.044344	3.232396	-0.353559	0.027287	2.455366	-0.326362	0.341101	17.931302	-2.420174	0.000000	0.000000	-2.270142	-11.261129	14.504986	13.123044	-15.958174	34.417473	122.188303	77.934566	-13.250536	28.140631	-12.278235	-18.053350	9.175474	130.332502	88.233309	0.930734	6.280712
1.270833	2.179907	-2.951777	96.632478	0.212296	0.867900	0.621983	4.019235	0.885544	12.466566	13.465929	0.235025	31.303715	-7.851323	0.000000	1.478988	-0.665928	-16.245574	11.976922	0.209037	35.056442	17.354598	0.000000	0.009193	1.743845	-0.401111	0.017073	2.319314	-0.426181	0.015104	4.239985	-0.426181	0.010507	4.239985	-0.350972	0.008537	3.556049	-0.325903	0.005253	2.701216	-0.300833	0.065668	19.726726	-2.230859	0.000000	0.000000	-4.816220	-12.868020	14.666735	14.114679	-15.202541	35.449213	125.669720	80.070876	-14.377782	27.787863	-12.094407	-18.034156	9.610890	134.783267	89.125871	2.410965	6.112221
1.291667	1.861080	-1.946113	95.988350	0.211796	0.869217	0.621501	3.732975	0.774881	13.484548	14.476600	0.252664	32.270524	-7.733025	0.000000	0.666330	-0.482376	-16.582407	12.511168	0.218361	35.724401	17.649239	0.000000	-0.034505	1.890940	-0.358153	-0.064080	2.514950	-0.380537	-0.056689	4.597632	-0.380537	-0.039436	4.597632	-0.313384	-0.032042	3.856005	-0.290999	-0.019716	2.929066	-0.268615	-0.246469	21.390694	-1.991938	0.000000	0.000000	-6.858803	-14.230000	14.399452	15.097533	-14.485385	36.315140	128.526798	82.148816	-15.343763	27.300723	-11.320721	-17.949903	10.637915	138.308569	89.651883	3.802306	6.062762
1.312500	1.533053	-1.012023	95.387806	0.211426	0.870191	0.621640	3.589916	0.619139	14.192739	15.604161	0.272344	33.193703	-7.410924	0.000000	-0.032259	-0.260716	-16.696979	13.007691	0.227027	36.367911	17.725915	0.000000	-0.081066	2.022160	-0.308590	-0.150547	2.689473	-0.327877	-0.133183	4.916681	-0.327877	-0.092650	4.916681	-0.270016	-0.075278	4.123589	-0.250729	-0.046321	3.132326	-0.231443	-0.579045	22.875082	-1.716285	0.000000	0.000000	-8.368452	-15.225014	13.773789	16.077897	-13.872812	36.974119	130.798252	83.993748	-16.170378	26.775994	-9.977223	-17.829072	12.255245	140.945692	89.313346	5.140020	6.398003
1.333333	1.204357	-0.181067	94.821912	0.211195	0.870840	0.622289	3.590400	0.422856	14.596028	16.807154	0.293340	34.029935	-6.899963	0.000000	-0.599113	-0.007973	-16.665481	13.452809	0.234796	36.962004	17.645480	0.000000	-0.128574	2.134412	-0.255742	-0.238774	2.838769	-0.271725	-0.211234	5.189610	-0.271725	-0.146947	5.189610	-0.223774	-0.119394	4.352494	-0.207790	-0.073467	3.306205	-0.191806	-0.918389	24.144900	-1.422358	0.000000	0.000000	-9.362122	-15.809757	12.865225	17.035198	-13.395230	37.316506	132.559667	85.490623	-16.557879	26.383752	-8.212126	-17.675440	14.328901	142.785783	88.539108	6.586704	6.949148
1.354167	0.893505	0.535991	94.292453	0.211108	0.871215	0.623328	3.714282	0.202102	14.696657	18.047211	0.314983	34.744851	-6.214390	0.000000	-1.024735	0.236545	-16.727394	13.870070	0.242078	37.528403	17.700808	0.000000	-0.175018	2.225765	-0.197845	-0.325026	2.960268	-0.210211	-0.287538	5.411726	-0.210211	-0.200028	5.411726	-0.173115	-0.162522	4.538781	-0.160749	-0.100005	3.447711	-0.148384	-1.250138	25.178303	-1.100357	0.000000	0.000000	-9.892273	-15.972823	11.616157	17.871689	-13.093928	37.195486	133.945017	86.649515	-16.343763	26.112199	-6.133800	-17.470222	16.799030	143.945918	87.409575	8.171145	7.695602
1.375000	0.600309	1.138758	93.818469	0.211160	0.871372	0.624628	3.935453	-0.042339	14.500369	19.298109	0.336816	35.316678	-5.403459	0.000000	-1.327061	0.478424	-16.706119	14.241235	0.248556	38.007055	17.673746	0.000000	-0.217155	2.294244	-0.136604	-0.403279	3.051344	-0.145141	-0.356764	5.578225	-0.145141	-0.248187	5.578225	-0.119528	-0.201650	4.678422	-0.110990	-0.124082	3.553784	-0.102453	-1.551117	25.952946	-0.759748	0.000000	0.000000	-10.059376	-15.769540	9.958231	18.494089	-12.969100	36.486313	135.101349	87.530335	-15.454540	25.921965	-3.833210	-17.199990	19.562599	144.587131	86.153455	9.836755	8.528897
1.395833	0.318487	1.636171	93.403602	0.211389	0.871362	0.626063	4.230488	-0.311541	14.023800	20.545111	0.358580	35.750128	-4.513607	0.000000	-1.524059	0.711889	-16.622366	14.572659	0.254341	38.389959	17.596651	0.000000	-0.251650	2.338863	-0.072326	-0.467340	3.110688	-0.076846	-0.413437	5.686712	-0.076846	-0.287611	5.686712	-0.063285	-0.233683	4.769410	-0.058765	-0.143793	3.622899	-0.054244	-1.797514	26.457690	-0.402253	0.000000	0.000000	-10.013968	-15.271205	7.818404	18.854771	-12.983092	35.151076	136.144801	88.263829	-13.880303	25.697829	-1.376035	-16.834481	22.462754	144.855711	85.196846	11.606889	9.365538
1.416667	0.033828	2.047601	93.053974	0.211852	0.871241	0.627533	4.562067	-0.612935	13.307483	21.761760	0.379814	36.049695	-3.607101	0.000000	-1.642797	0.942676	-16.479420	14.869447	0.259521	38.671264	17.488337	0.000000	-0.277125	2.358831	-0.002089	-0.514649	3.137245	-0.002219	-0.455289	5.735262	-0.002219	-0.316727	5.735262	-0.001828	-0.257339	4.810128	-0.001697	-0.158349	3.653829	-0.001567	-1.979478	26.683569	-0.011617	0.000000	0.000000	-9.902259	-14.513373	5.135024	18.937764	-13.085225	33.229131	137.175210	88.892898	-11.796957	25.238315	1.217695	-16.373183	25.387040	144.866141	84.548770	13.517878	10.205280
1.437500	-0.245058	2.368819	92.710120	0.212629	0.871020	0.628919	4.932587	-0.926755	12.460856	22.932055	0.400240	36.218164	-2.702432	0.000000	-1.698639	1.161531	-16.314414	15.119899	0.263892	38.845803	17.314478	0.000000	-0.290104	2.360124	0.076399	-0.538752	3.138965	0.081174	-0.476612	5.738406	0.081174	-0.331560	5.738406	0.066849	-0.269391	4.812765	0.062074	-0.165765	3.655832	0.057299	-2.072185	26.698196	0.424909	0.000000	0.000000	-9.832412	-13.615975	2.039903	18.806559	-13.230992	30.889798	138.203484	89.299375	-9.275542	24.372489	3.883136	-15.851093	28.255355	144.710201	84.152518	15.060472	10.881038
1.458333	-0.528443	2.610971	92.404254	0.213723	0.870706	0.630112	5.315060	-1.250522	11.566426	24.046101	0.419684	36.256859	-1.922495	0.000000	-1.703699	1.368939	-16.156808	15.347049	0.267857	38.924947	17.141313	0.000000	-0.292094	2.344512	0.145575	-0.542448	3.118200	0.154673	-0.479882	5.700445	0.154673	-0.333835	5.700445	0.127378	-0.271239	4.780928	0.118280	-0.166903	3.631648	0.109181	-2.086401	26.521584	0.809644	0.000000	0.000000	-9.851823	-12.530760	-1.307067	18.592444	-13.368121	28.449240	139.239471	89.568372	-6.845353	23.047154	6.571971	-15.285135	30.782180	144.465527	83.944395	16.214598	11.471400
1.479167	-0.815501	2.750035	92.125323	0.215127	0.870286	0.631011	5.721645	-1.574948	10.723978	25.083021	0.437781	36.153643	-1.320039	0.000000	-1.649579	1.568529	-16.014617	15.535497	0.271146	38.898760	16.963712	0.000000	-0.280588	2.315901	0.204650	-0.521079	3.080149	0.217441	-0.460977	5.630883	0.217441	-0.320684	5.630883	0.179069	-0.260554	4.722586	0.166278	-0.160328	3.587331	0.153488	-2.004209	26.197941	1.138202	0.000000	0.000000	-9.994325	-11.324667	-4.814425	18.386798	-13.419768	26.086726	140.269498	89.628008	-4.757882	21.523044	9.289518	-14.719098	32.799521	144.163403	83.795597	16.673436	12.008858
1.500000	-1.097538	2.795227	91.879376	0.216834	0.869808	0.631578	6.125167	-1.878141	10.021712	26.003599	0.453848	35.922588	-0.953781	0.000000	-1.545154	1.749914	-15.883404	15.687818	0.273804	38.783173	16.804742	0.000000	-0.257832	2.277790	0.253793	-0.478819	3.029461	0.269655	-0.423591	5.538219	0.269655	-0.294676	5.538219	0.222069	-0.239422	4.644869	0.206207	-0.147325	3.528297	0.190345	-1.841665	25.766816	1.411521	0.000000	0.000000	-10.292618	-9.994817	-8.401642	18.272471	-13.348714	23.949359	141.256218	89.493686	-3.224783	20.058624	12.009122	-14.180772	34.165160	143.797072	83.668262	16.337285	12.507711
